# xmcd
# Track frame offsets:
# 150
# 12062
# 29950
# 48700
# 61337
# 77612
# 87900
# 110950
# 134150
# 153797
# 172762
# 183687
# 194295
# 206475
# 218912
# 237307
#
# Disc length: 3245 seconds
# Revision: 0
# Processed by: cddbd v1.5.1PL0 Copyright (c) Steve Scherf et al.
# Submitted via: VisiTrax 2.9.10.220 - For more info visit www.synapsa.com
#
DISCID=e60cab10
DTITLE=Merle Haggard - Merle Haggard In Concert
DYEAR=1900
DGENRE=
TTITLE0=Okie From Muskogie
TTITLE1=Stay Here and Drink
TTITLE2=Mama's Hungry Eyes
TTITLE3=Kern River
TTITLE4=Today, I Started Loving You again
TTITLE5=Mama Tried
TTITLE6=If I Could Only Fly
TTITLE7=When The Times Were Good
TTITLE8=Honky Tonk Nighttime Man
TTITLE9=Footlights
TTITLE10=Ida Red
TTITLE11=This Morning, This Evening
TTITLE12=The Moment I Lost You
TTITLE13=Bill Cheatum
TTITLE14=The Chill Factor
TTITLE15=The Fightin' side Of Me
EXTD=
EXTT0=
EXTT1=
EXTT2=
EXTT3=
EXTT4=
EXTT5=
EXTT6=
EXTT7=
EXTT8=
EXTT9=
EXTT10=
EXTT11=
EXTT12=
EXTT13=
EXTT14=
EXTT15=
PLAYORDER=
